<svg id="pencil" xmlns="http://www.w3.org/2000/svg" viewBox="0 0 349.87 349.87"><defs><style>.cls-1{fill:#464c56;}.cls-2{fill:#fff;}.cls-3{fill:#ef7c7f;}.cls-4{fill:#a9b3c6;}.cls-5{fill:#f5afb4;}</style></defs><title>Naamloos-2_Tekengebied 1</title><circle class="cls-1" cx="174.94" cy="174.94" r="170.44"/><path class="cls-2" d="M174.94,9A165.94,165.94,0,0,1,292.27,292.27,165.94,165.94,0,0,1,57.6,57.6,164.85,164.85,0,0,1,174.94,9m0-9A174.94,174.94,0,1,0,349.87,174.94,174.94,174.94,0,0,0,174.94,0Z"/><rect class="cls-3" x="80.56" y="59.77" width="19.16" height="230.32"/><path class="cls-2" d="M217.26,104.82a13.93,13.93,0,0,1-13.94,13.93H133.16V90.88h70.16A13.94,13.94,0,0,1,217.26,104.82Z"/><path class="cls-4" d="M239.71,155.92a13.93,13.93,0,0,1-13.93,13.93H133.16V142h92.62A13.94,13.94,0,0,1,239.71,155.92Z"/><path class="cls-3" d="M266,207A13.93,13.93,0,0,1,252.1,221H133.16V193.08H252.1A13.93,13.93,0,0,1,266,207Z"/><path class="cls-2" d="M287.71,258.11A13.93,13.93,0,0,1,273.78,272H133.16V244.17H273.78A13.94,13.94,0,0,1,287.71,258.11Z"/><rect class="cls-5" x="80.56" y="169.85" width="19.16" height="120.25"/></svg>