<svg id="Laag_1" data-name="Laag 1" xmlns="http://www.w3.org/2000/svg" viewBox="0 0 900 898"><defs><style>.cls-1{fill:#3b5169;}.cls-2{fill:#fff;}.cls-3{fill:#c7c7c7;}.cls-4{fill:#2f3a47;}.cls-5{fill:#f3c40f;}</style></defs><title>save icon</title><path class="cls-1" d="M93.26,0h613A18,18,0,0,0,710,1.43c11.27,1.79,21.16,6.78,30.52,13,22.45,15,41.79,33.58,61,52.28,26.77,26,53.16,52.41,76.43,81.72,15,18.88,22.56,39.63,22.49,64.42-.54,193-.25,386-.44,579a115.66,115.66,0,0,1-3.46,29.58c-10.5,39.13-35.79,64.05-74.81,75-4.77,1.34-9.61,2.41-14.42,3.61h-714c-6.1-1.51-12.27-2.79-18.29-4.56C31.39,882.57.39,842.66.4,794.38Q.5,449.76.52,105.12A94.45,94.45,0,0,1,2.66,83.35C12.6,41.87,37.93,14.89,79.33,3.49,84,2.22,88.62,1.16,93.26,0ZM450.8,449.78q-154.74,0-309.47,0c-22.86,0-37.5,14.72-37.51,37.51q0,170,0,340c0,23.88,14.27,38.38,38.2,38.38q308.24.08,616.45,0a44,44,0,0,0,12.82-1.51c16.54-5.1,25.42-17.8,25.43-35.78q0-88.74,0-177.48,0-81.74,0-163.48c0-8.8-1.87-16.88-7.35-23.85-7.65-9.71-17.83-13.79-30.14-13.78Q605,449.87,450.8,449.78ZM432.75,346.44q110.49,0,221,0a48.62,48.62,0,0,0,11.89-1c17.52-4.45,27.33-17.78,27.34-36.9,0-78.49-.18-157,.16-235.46.09-20.65-13.48-38.83-38.69-38.79q-221.22.33-442.46.17a47.57,47.57,0,0,0-13.33,1.48C182.1,40.76,173,53.71,173,72.06q-.08,118.23,0,236.46A47,47,0,0,0,175,322.3c4.88,15.49,18.11,24.13,36.26,24.14Q322,346.47,432.75,346.44Z"/><path class="cls-2" d="M450.8,449.78q154.24,0,308.48,0c12.31,0,22.49,4.07,30.14,13.78,5.48,7,7.37,15.05,7.35,23.85q-.13,81.74,0,163.48,0,88.74,0,177.48c0,18-8.89,30.68-25.43,35.78a44,44,0,0,1-12.82,1.51q-308.22.1-616.45,0c-23.93,0-38.2-14.5-38.2-38.38q0-170,0-339.95c0-22.79,14.65-37.51,37.51-37.51Q296.07,449.74,450.8,449.78Z"/><path class="cls-3" d="M432.75,346.44q-110.74,0-221.48,0c-18.15,0-31.38-8.65-36.26-24.14a47,47,0,0,1-1.94-13.78q-.16-118.23,0-236.46c0-18.35,9.08-31.3,25.62-36.19A47.57,47.57,0,0,1,212,34.39q221.23-.11,442.46-.17c25.21,0,38.78,18.14,38.69,38.79-.34,78.48-.12,157-.16,235.46,0,19.12-9.82,32.45-27.34,36.9a48.62,48.62,0,0,1-11.89,1Q543.24,346.49,432.75,346.44Zm87-156.45c0,38.3.07,76.61-.09,114.92,0,4.66,1.07,6.34,6,6.3q45.72-.31,91.44,0c4.43,0,6-1,6-5.81q-.23-114.93,0-229.85c0-4.86-1.46-6.21-6.24-6.17-30.15.19-60.3.09-90.45.1-6.69,0-6.7,0-6.7,6.6Q519.71,133,519.72,190Z"/><path class="cls-4" d="M519.72,190q0-57,0-113.93c0-6.59,0-6.6,6.7-6.6,30.15,0,60.3.09,90.45-.1,4.78,0,6.25,1.31,6.24,6.17q-.21,114.92,0,229.85c0,4.79-1.56,5.83-6,5.81q-45.72-.24-91.44,0c-5,0-6.07-1.64-6-6.3C519.79,266.6,519.72,228.29,519.72,190Z"/><path class="cls-5" d="M789.42,463.51c-7.65-9.71-17.83-13.79-30.14-13.78q-154.24.13-308.48,0-154.74,0-309.47,0c-22.86,0-37.5,14.72-37.51,37.51V577h692.9q0-44.82,0-89.64C796.79,478.56,794.9,470.48,789.42,463.51Z"/></svg>